<?xml version="1.0" encoding="UTF-8"?>
<svg width="1138px" height="1326px" viewBox="0 0 1138 1326" version="1.1" xmlns="http://www.w3.org/2000/svg" xmlns:xlink="http://www.w3.org/1999/xlink">
    <title>Artboard</title>
    <g id="Artboard" stroke="none" stroke-width="1" fill="none" fill-rule="evenodd">
        <g id="Group-5" transform="translate(0.000000, -16.000000)">
            <g id="individual" transform="translate(489.000000, 683.000000)" fill="#000000">
                <path d="M34,96 C11.3333333,97.3679545 0,106.038857 0,122.012706 C0,122.012706 0,122.012706 0,122.012706 C3.24563871e-15,148.515358 21.4846439,170.000001 47.9872952,170 L111.951165,170 C138.453816,170.000001 159.93846,148.515358 159.93846,122.012706 C159.93846,122.012706 159.93846,122.012706 159.93846,122.012706 C159.93846,107.415598 148.62564,98.7446957 126,96 C113.333333,110.666667 98,118 80,118 C62,118 46.6666667,110.666667 34,96 Z" id="Line-2" stroke="#000000" stroke-width="6" stroke-linecap="square"></path>
                <ellipse id="Oval" cx="80.0000001" cy="54.4800001" rx="52.3846155" ry="54.4800001"></ellipse>
            </g>
            <path d="M777.938852,1153 C782.943186,1153 787,1157.05681 787,1162.06115 L787,1332.93885 C787,1337.94319 782.943186,1342 777.938852,1342 L607.061148,1342 C602.056814,1342 598,1337.94319 598,1332.93885 L598,1162.06115 C598,1157.05681 602.056814,1153 607.061148,1153 L777.938852,1153 Z M698.119393,1174.37839 C694.412738,1172.36366 689.916978,1172.40277 686.238206,1174.50274 L686.238206,1174.50274 L632.189441,1205.35567 L631.906705,1205.52212 C628.267015,1207.73104 626.033493,1211.68465 626.033493,1215.95801 L626.033493,1215.95801 L626.033493,1278.15993 L626.038004,1278.49241 C626.152103,1282.695 628.4237,1286.55357 632.063138,1288.68917 L632.063138,1288.68917 L686.145002,1320.42406 L686.457523,1320.60134 C690.231045,1322.66935 694.826693,1322.60078 698.544383,1320.39906 L698.544383,1320.39906 L752.074959,1288.69682 L752.364954,1288.5196 C755.904405,1286.28854 758.062201,1282.3923 758.062201,1278.19258 L758.062201,1278.19258 L758.062201,1216.30578 L758.057661,1215.97224 C757.942834,1211.75622 755.656818,1207.8876 751.998812,1205.75682 L751.998812,1205.75682 L698.435137,1174.55611 Z M742.763014,1227.61725 L742.967724,1278.28759 L698.560052,1304.1314 L699.173885,1253.01893 L742.763014,1227.61725 Z M640.573378,1227.61725 L684.162508,1253.01893 L684.776341,1304.1314 L640.368669,1278.28759 L640.573378,1227.61725 Z M692.352061,1188.10296 L736.158821,1213.12793 L692.352061,1238.64027 L647.752895,1213.12793 L692.352061,1188.10296 Z M675.31853,1204.0422 L672.124068,1204.0422 L672.124068,1218.56988 L675.31853,1218.56988 L675.31853,1212.30304 L681.198781,1212.30304 L681.198781,1218.56988 L684.393243,1218.56988 L684.393243,1204.0422 L681.198781,1204.0422 L681.198781,1209.61725 L675.31853,1209.61725 L675.31853,1204.0422 Z M689.215455,1204.0422 L685.634403,1204.0422 L690.965288,1212.91344 L690.965288,1218.56988 L694.15975,1218.56988 L694.15975,1212.99483 L699.551676,1204.0422 L695.99097,1204.0422 L692.613386,1209.78002 L689.215455,1204.0422 Z M707.324188,1204.0422 L700.772489,1204.0422 L700.772489,1218.56988 L703.966951,1218.56988 L703.966951,1213.36108 L707.324188,1213.36108 L707.65864,1213.35488 C708.806967,1213.31148 708.806967,1213.31148 709.643733,1212.96431 C710.600037,1212.56755 710.600037,1212.56755 711.20027,1211.91645 C711.800503,1211.26535 711.800503,1211.26535 712.075186,1210.42095 C712.349869,1209.57655 712.349869,1209.57655 712.349869,1208.70164 C712.349869,1207.80638 712.349869,1207.80638 712.075186,1206.97215 C711.800503,1206.13793 711.800503,1206.13793 711.20027,1205.48683 C710.600037,1204.83573 710.600037,1204.83573 709.643733,1204.43897 C708.687429,1204.0422 708.687429,1204.0422 707.324188,1204.0422 L707.324188,1204.0422 Z M706.449271,1206.52452 C706.998637,1206.52452 706.998637,1206.52452 707.50731,1206.60591 C708.015982,1206.6873 708.015982,1206.6873 708.402573,1206.92129 C708.789164,1207.15528 708.789164,1207.15528 709.023153,1207.58256 C709.257142,1208.00984 709.257142,1208.00984 709.257142,1208.70164 C709.257142,1209.39343 709.257142,1209.39343 709.023153,1209.82072 C708.789164,1210.248 708.789164,1210.248 708.402573,1210.48199 C708.015982,1210.71598 708.015982,1210.71598 707.50731,1210.79737 C706.998637,1210.87876 706.998637,1210.87876 706.449271,1210.87876 L706.449271,1210.87876 L703.966951,1210.87876 L703.966951,1206.52452 Z" id="Combined-Shape" fill="#000000"></path>
            <path d="M524.938852,1153 C529.943186,1153 534,1157.05681 534,1162.06115 L534,1332.93885 C534,1337.94319 529.943186,1342 524.938852,1342 L354.061148,1342 C349.056814,1342 345,1337.94319 345,1332.93885 L345,1162.06115 C345,1157.05681 349.056814,1153 354.061148,1153 L524.938852,1153 Z M444.026582,1174 L444.026582,1196.2486 L444.018958,1196.32394 C443.98404,1196.49429 443.833316,1196.62243 443.652662,1196.62243 C443.603064,1196.62243 443.553961,1196.61256 443.508215,1196.5934 C442.291875,1196.08383 441.038018,1195.82905 439.746645,1195.82905 C438.421642,1195.82905 437.026536,1196.09727 435.561327,1196.63372 C435.367415,1196.70466 435.152684,1196.60503 435.081695,1196.41114 C435.066618,1196.36996 435.058904,1196.32645 435.058904,1196.2826 L435.058904,1196.2826 L435.058904,1174 L378.120228,1206.79761 L377.868135,1206.94886 C375.46331,1208.45061 373.994776,1211.09189 373.999988,1213.94091 L373.999988,1213.94091 L374.11827,1278.59235 L393.367173,1268.00143 L393.436856,1267.97179 C393.602938,1267.92027 393.787866,1267.99055 393.874952,1268.14883 C393.895928,1268.18695 393.910087,1268.22845 393.916792,1268.27144 C394.160557,1269.83471 394.583784,1271.16996 395.186472,1272.27718 C395.779456,1273.36658 396.613648,1274.35921 397.68905,1275.25508 C397.847768,1275.38724 397.869244,1275.62304 397.737049,1275.78173 C397.70744,1275.81727 397.671494,1275.84701 397.631035,1275.86944 L397.631035,1275.86944 L377.868463,1286.82503 L435.247682,1319.80093 L435.528116,1319.95553 C438.258755,1321.39817 441.549466,1321.33769 444.231881,1319.77719 L444.231881,1319.77719 L500.874788,1286.82503 L481.512651,1275.88891 L481.450748,1275.84524 C481.319488,1275.73111 481.282022,1275.53677 481.370905,1275.3794 C481.396331,1275.33439 481.430814,1275.29513 481.472178,1275.26412 C482.552926,1274.45372 483.431427,1273.45808 484.107679,1272.27718 C484.794212,1271.07834 485.236918,1269.75035 485.435796,1268.29322 C485.463748,1268.08863 485.652245,1267.94541 485.856844,1267.97333 C485.903843,1267.97975 485.949193,1267.99505 485.990473,1268.01841 L485.990473,1268.01841 L505,1278.77946 L505,1213.92721 L504.994792,1213.634 C504.894317,1210.80757 503.346167,1208.22185 500.884508,1206.80171 L500.884508,1206.80171 L444.026582,1174 Z M436.016505,1202.6614 C438.326738,1201.34965 441.159461,1201.36201 443.458156,1202.69387 L443.458156,1202.69387 L476.519464,1221.84955 C478.827688,1223.18694 480.248727,1225.65262 480.248727,1228.32029 L480.248727,1228.32029 L480.248727,1266.247 C480.248727,1268.89541 478.847969,1271.34629 476.566052,1272.69052 L476.566052,1272.69052 L443.524937,1292.15426 C441.191834,1293.52863 438.298043,1293.53445 435.959432,1292.16947 L435.959432,1292.16947 L402.578162,1272.68576 C400.281586,1271.34531 398.869543,1268.88617 398.869543,1266.22703 L398.869543,1266.22703 L398.869543,1228.10697 C398.869543,1225.41597 400.315332,1222.93246 402.655429,1221.60376 L402.655429,1221.60376 Z M470.819323,1235.13322 L444.016846,1250.82007 L443.573726,1282.27215 L470.87947,1266.31218 L470.819323,1235.13322 Z M407.830933,1235.13322 L407.770786,1266.31218 L435.07653,1282.27215 L434.63341,1250.82007 L407.830933,1235.13322 Z M439.746645,1211.02138 L412.256838,1226.36408 L439.746645,1242.0056 L466.748033,1226.36408 L439.746645,1211.02138 Z" id="Combined-Shape" fill="#000000"></path>
            <path d="M178.98,683 C184.513893,683 189,687.486107 189,693.02 L189,861.98 C189,867.513893 184.513893,872 178.98,872 L10.02,872 C4.48610681,872 6.77706459e-16,867.513893 0,861.98 L0,693.02 C-6.77706459e-16,687.486107 4.48610681,683 10.02,683 L178.98,683 Z M123.48,758.6 C102.603636,758.6 85.68,775.523636 85.68,796.4 C85.68,817.276364 102.603636,834.2 123.48,834.2 C144.356364,834.2 161.28,817.276364 161.28,796.4 C161.28,775.523636 144.356364,758.6 123.48,758.6 Z M48.51,788.84 C36.3321213,788.84 26.46,798.712121 26.46,810.89 C26.46,823.067879 36.3321213,832.94 48.51,832.94 C60.6878787,832.94 70.56,823.067879 70.56,810.89 C70.56,798.712121 60.6878787,788.84 48.51,788.84 Z M124.11,767.42 C139.767273,767.42 152.46,780.112727 152.46,795.77 C152.46,811.427273 139.767273,824.12 124.11,824.12 C108.452727,824.12 95.76,811.427273 95.76,795.77 C95.76,780.112727 108.452727,767.42 124.11,767.42 Z M48.51,801.44 C53.7290909,801.44 57.96,805.670909 57.96,810.89 C57.96,816.109091 53.7290909,820.34 48.51,820.34 C43.2909091,820.34 39.06,816.109091 39.06,810.89 C39.06,805.670909 43.2909091,801.44 48.51,801.44 Z M124.11,774.8 C112.528589,774.8 103.14,784.188589 103.14,795.77 C103.14,807.351411 112.528589,816.74 124.11,816.74 C135.691411,816.74 145.08,807.351411 145.08,795.77 C145.08,784.188589 135.691411,774.8 124.11,774.8 Z M123.48,783.8 C130.438788,783.8 136.08,789.441212 136.08,796.4 C136.08,803.358788 130.438788,809 123.48,809 C116.521212,809 110.88,803.358788 110.88,796.4 C110.88,789.441212 116.521212,783.8 123.48,783.8 Z M45.36,720.8 L39.06,726.47 L43.2868916,730.274202 C44.6064872,731.461838 45.36,733.153748 45.36,734.929082 L45.36,734.929082 L45.36,742.85 L39.06,742.85 L40.95,746 L40.95,759.86 L26.46,759.86 L26.46,793.88 C36.54,784.64 46.41,781.28 56.07,783.8 C65.73,786.32 71.82,794.3 74.34,807.74 L74.34,807.74 L81.9,807.74 C81.3201356,794.638065 81.9501356,785.398065 83.79,780.02 C85.6298644,774.641935 90.4598644,767.921935 98.28,759.86 L98.28,759.86 L86.94,759.86 C87.6976516,753.351357 88.5376516,748.521357 89.46,745.37 C90.3823484,742.218643 92.0623484,738.438643 94.5,734.03 L94.5,734.03 L128.52,734.03 L128.52,751.67 L140.49,755.45 L140.49,724.58 L85.68,724.58 L75.6,759.86 L59.22,759.86 L59.22,742.85 L52.92,742.85 C53.05125,740.35625 53.1209766,738.170117 53.1291797,736.291602 L53.1291797,736.291602 L53.1291797,735.556602 C53.1122266,731.843867 52.8325,729.445 52.29,728.36 C51.45,726.68 49.14,724.16 45.36,720.8 L45.36,720.8 Z" id="Combined-Shape" fill="#000000"></path>
            <path d="M1127.98,683 C1133.51389,683 1138,687.486107 1138,693.02 L1138,861.98 C1138,867.513893 1133.51389,872 1127.98,872 L959.02,872 C953.486107,872 949,867.513893 949,861.98 L949,693.02 C949,687.486107 953.486107,683 959.02,683 L1127.98,683 Z M1054.39771,838.054373 L1054.22231,838.244322 C1051.53999,841.101875 1047.73501,842.885783 1043.51496,842.885783 C1039.20413,842.885783 1035.32642,841.0243 1032.63547,838.057729 C1025.85396,838.605081 1022.39952,840.725286 1022.27217,844.418344 L1022.27217,844.418344 L1022.26851,844.632124 L1022.27218,844.93544 C1022.43319,851.588859 1027.87718,856.932963 1034.56935,856.932992 L1034.56935,856.932992 L1052.44423,856.932992 L1052.7522,856.929211 C1059.30266,856.768219 1064.58286,851.486499 1064.7414,844.93544 L1064.7414,844.93544 L1064.74507,844.632124 L1064.74139,844.430169 C1064.61369,840.955553 1061.16579,838.830288 1054.39771,838.054373 L1054.39771,838.054373 Z M996.182295,838.054373 L996.006903,838.244322 C993.324579,841.101875 989.519603,842.885783 985.29955,842.885783 C980.988717,842.885783 977.111011,841.0243 974.42006,838.057729 C967.638548,838.605081 964.184112,840.725286 964.056754,844.418344 L964.056754,844.418344 L964.053097,844.632124 L964.056764,844.93544 C964.21778,851.588859 969.661767,856.932963 976.353936,856.932992 L976.353936,856.932992 L994.228821,856.932992 L994.536789,856.929211 C1001.08725,856.768219 1006.36745,851.486499 1006.52599,844.93544 L1006.52599,844.93544 L1006.52966,844.632124 L1006.52598,844.430169 C1006.39828,840.955553 1002.95038,838.830288 996.182295,838.054373 L996.182295,838.054373 Z M1112.61312,838.054373 L1112.43773,838.244322 C1109.7554,841.101875 1105.95043,842.885783 1101.73037,842.885783 C1097.41954,842.885783 1093.54183,841.0243 1090.85088,838.057729 C1084.06937,838.605081 1080.61493,840.725286 1080.48758,844.418344 L1080.48758,844.418344 L1080.48392,844.632124 L1080.48759,844.93544 C1080.6486,851.588859 1086.09259,856.932963 1092.78476,856.932992 L1092.78476,856.932992 L1110.65964,856.932992 L1110.96761,856.929211 C1117.51807,856.768219 1122.79828,851.486499 1122.95682,844.93544 L1122.95682,844.93544 L1122.96048,844.632124 L1122.9568,844.430169 C1122.8291,840.955553 1119.3812,838.830288 1112.61312,838.054373 L1112.61312,838.054373 Z M1043.50603,814.45643 C1036.12074,814.45643 1030.13378,820.443391 1030.13378,827.828681 C1030.13378,835.213972 1036.12074,841.200932 1043.50603,841.200932 C1050.89132,841.200932 1056.87828,835.213972 1056.87828,827.828681 C1056.87828,820.443391 1050.89132,814.45643 1043.50603,814.45643 Z M985.290622,814.45643 C977.905331,814.45643 971.918371,820.443391 971.918371,827.828681 C971.918371,835.213972 977.905331,841.200932 985.290622,841.200932 C992.675912,841.200932 998.662873,835.213972 998.662873,827.828681 C998.662873,820.443391 992.675912,814.45643 985.290622,814.45643 Z M1101.72144,814.45643 C1094.33615,814.45643 1088.34919,820.443391 1088.34919,827.828681 C1088.34919,835.213972 1094.33615,841.200932 1101.72144,841.200932 C1109.10673,841.200932 1115.0937,835.213972 1115.0937,827.828681 C1115.0937,820.443391 1109.10673,814.45643 1101.72144,814.45643 Z M1100.93718,751.535146 L986.062819,751.535146 C984.333478,751.535146 982.931569,752.937054 982.931569,754.666396 L982.931569,754.666396 L982.931569,790.865296 L979.615046,790.865296 L979.472542,790.871694 C978.674655,790.943685 978.049421,791.614287 978.049421,792.430921 C978.049421,792.747637 978.145477,793.056905 978.324906,793.317892 L978.324906,793.317892 L984.001238,801.574375 L984.092565,801.694564 C984.604865,802.305817 985.507738,802.43859 986.17835,801.977544 C986.336284,801.868965 986.472939,801.732309 986.581519,801.574375 L986.581519,801.574375 L992.257851,793.317892 L992.337366,793.189583 C992.724635,792.492371 992.525294,791.601826 991.854682,791.14078 C991.593695,790.961351 991.284426,790.865296 990.96771,790.865296 L990.96771,790.865296 L987.651187,790.865296 L987.651187,756.254764 L1041.14019,756.254764 L1041.14019,790.865296 L1037.82367,790.865296 L1037.68116,790.871694 C1036.88328,790.943685 1036.25804,791.614287 1036.25804,792.430921 C1036.25804,792.747637 1036.3541,793.056905 1036.53353,793.317892 L1036.53353,793.317892 L1042.20986,801.574375 L1042.30119,801.694564 C1042.81349,802.305817 1043.71636,802.43859 1044.38697,801.977544 C1044.54491,801.868965 1044.68156,801.732309 1044.79014,801.574375 L1044.79014,801.574375 L1050.46647,793.317892 L1050.54599,793.189583 C1050.93326,792.492371 1050.73392,791.601826 1050.0633,791.14078 C1049.80232,790.961351 1049.49305,790.865296 1049.17633,790.865296 L1049.17633,790.865296 L1045.85981,790.865296 L1045.85981,756.254764 L1099.34881,756.254764 L1099.34881,790.865296 L1096.03229,790.865296 L1095.88979,790.871694 C1095.0919,790.943685 1094.46666,791.614287 1094.46666,792.430921 C1094.46666,792.747637 1094.56272,793.056905 1094.74215,793.317892 L1094.74215,793.317892 L1100.41848,801.574375 L1100.50981,801.694564 C1101.02211,802.305817 1101.92498,802.43859 1102.59559,801.977544 C1102.75353,801.868965 1102.89018,801.732309 1102.99876,801.574375 L1102.99876,801.574375 L1108.67509,793.317892 L1108.75461,793.189583 C1109.14188,792.492371 1108.94254,791.601826 1108.27193,791.14078 C1108.01094,790.961351 1107.70167,790.865296 1107.38495,790.865296 L1107.38495,790.865296 L1104.06843,790.865296 L1104.06843,754.666396 C1104.06843,752.937054 1102.66652,751.535146 1100.93718,751.535146 L1100.93718,751.535146 Z M1054.39092,721.65104 L1054.21552,721.840989 C1051.5332,724.698542 1047.72822,726.48245 1043.50817,726.48245 C1039.19734,726.48245 1035.31963,724.620967 1032.62868,721.654396 C1025.84717,722.201748 1022.39273,724.321953 1022.26538,728.015011 L1022.26538,728.015011 L1022.26172,728.228791 L1022.26539,728.532107 C1022.4264,735.185526 1027.87039,740.52963 1034.56256,740.529659 L1034.56256,740.529659 L1052.43744,740.529659 L1052.74541,740.525878 C1059.29587,740.364886 1064.57608,735.083166 1064.73461,728.532107 L1064.73461,728.532107 L1064.73828,728.228791 L1064.7346,728.026836 C1064.6069,724.55222 1061.159,722.426955 1054.39092,721.65104 L1054.39092,721.65104 Z M1043.49924,698.053097 C1036.11395,698.053097 1030.12699,704.040058 1030.12699,711.425348 C1030.12699,718.810639 1036.11395,724.797599 1043.49924,724.797599 C1050.88453,724.797599 1056.87149,718.810639 1056.87149,711.425348 C1056.87149,704.040058 1050.88453,698.053097 1043.49924,698.053097 Z" id="Combined-Shape" fill="#000000"></path>
            <path d="M652.98,194 C658.513893,194 663,198.486107 663,204.02 L663,372.98 C663,378.513893 658.513893,383 652.98,383 L484.02,383 C478.486107,383 474,378.513893 474,372.98 L474,204.02 C474,198.486107 478.486107,194 484.02,194 L652.98,194 Z M514.266831,302.771034 C512.486843,301.659811 510.150709,302.11318 508.915583,303.80954 L508.915583,303.80954 L493.494832,324.98887 L493.375185,325.165457 C492.697186,326.243086 492.737069,327.634311 493.494832,328.675046 L493.494832,328.675046 L508.915583,349.854375 L509.047214,350.025414 C510.31116,351.580142 512.548222,351.965786 514.266831,350.892882 C515.905465,349.869905 516.404553,347.712243 515.381576,346.07361 L515.381576,346.07361 L515.322056,345.981514 C515.301737,345.95113 515.280942,345.921065 515.259678,345.89133 L515.259678,345.89133 L504.451076,330.775861 L619.812976,330.776372 C621.509463,330.776372 623.133365,330.088098 624.313156,328.869017 L624.313156,328.869017 L643.227592,309.324693 C644.416813,308.095869 644.400241,306.140222 643.190366,304.931728 L643.190366,304.931728 L642.015522,303.758225 C640.808677,302.552759 638.858991,302.535036 637.630433,303.718365 L637.630433,303.718365 L619.092787,321.573548 C618.217552,322.416561 617.049648,322.887544 615.834449,322.887544 L615.834449,322.887544 L504.451076,322.886861 L515.259678,307.772586 L515.370626,307.607917 C516.356861,306.051868 515.966239,303.977834 514.449112,302.892933 C514.38964,302.850405 514.328851,302.809752 514.266831,302.771034 Z M545.068417,273.976814 C534.599958,273.976814 526.113595,282.45349 526.113595,292.91 C526.113595,303.36651 534.599958,311.843186 545.068417,311.843186 C555.536876,311.843186 564.023239,303.36651 564.023239,292.91 C564.023239,282.45349 555.536876,273.976814 545.068417,273.976814 Z M590.875903,273.976814 C580.406776,273.976814 571.921081,282.451687 571.921081,292.91 C571.921081,303.368313 580.408292,311.843186 590.875903,311.843186 C601.343514,311.843186 609.830725,303.366041 609.830725,292.91 C609.830725,282.453959 601.343893,273.976814 590.875903,273.976814 Z M545.95071,279.301773 L556.744452,285.381736 L556.868477,285.459801 C557.226678,285.710499 557.457741,286.105852 557.500372,286.540984 L557.500372,286.540984 L557.507519,286.687358 L557.507519,298.692631 L553.90019,296.698781 L553.888744,296.693764 L553.876573,296.690922 C553.839296,296.685761 553.804893,296.711796 553.799758,296.749077 C553.762262,297.019889 553.678216,297.266629 553.54762,297.489297 C553.41931,297.708067 553.252585,297.892481 553.047447,298.04254 C553.039443,298.048396 553.032814,298.055929 553.028025,298.064613 C553.015919,298.086564 553.017205,298.112287 553.029159,298.132384 L553.029159,298.132384 L553.054751,298.157137 L556.725632,300.181572 L545.941994,306.30687 L545.789448,306.3833 C545.374905,306.564608 544.903058,306.565839 544.487575,306.386699 L544.487575,306.386699 L544.334632,306.311066 L533.411201,300.181572 L537.157873,298.153604 L537.168947,298.146123 L537.178352,298.136628 C537.202145,298.107365 537.19771,298.064355 537.168336,298.040698 C536.964327,297.874827 536.806092,297.691027 536.69363,297.489297 C536.579033,297.283736 536.498669,297.035707 536.452536,296.745209 C536.451331,296.737625 536.44886,296.730297 536.445226,296.723531 C536.433288,296.701309 536.410847,296.688344 536.387393,296.68758 L536.387393,296.68758 L536.352637,296.695951 L532.700396,298.658004 L532.67797,286.689905 L532.684878,286.543157 C532.7269,286.10689 532.958339,285.710342 533.317522,285.459181 L533.317522,285.459181 L533.441896,285.38099 L544.25099,279.301773 L544.25099,283.428021 L544.251992,283.43961 L544.254968,283.450855 C544.267578,283.485953 544.306255,283.504184 544.341551,283.492123 C544.62097,283.39173 544.886952,283.341533 545.139497,283.341533 C545.385817,283.341533 545.624935,283.389285 545.856851,283.484789 C545.865018,283.488152 545.873764,283.489883 545.882596,283.489883 C545.910602,283.489883 545.93463,283.472855 545.945106,283.448589 L545.945106,283.448589 L545.95071,283.422271 L545.95071,279.301773 Z M599.663358,283.279443 L599.663358,287.570839 L593.215307,287.570839 L593.215307,290.387339 C598.448354,290.629305 602.381101,291.665329 602.381101,292.90621 C602.381101,294.147091 598.448354,295.183115 593.216823,295.424324 L593.216823,295.424324 L593.216823,304.446744 L588.553937,304.446744 L588.553937,295.425081 C583.314825,295.183115 579.372222,294.146334 579.372222,292.904317 C579.372222,291.6623 583.312929,290.625519 588.553937,290.385067 L588.553937,290.385067 L588.553937,287.570839 L582.105128,287.570839 L582.105128,283.279443 L599.663358,283.279443 Z M545.662874,284.520423 C545.280051,284.358649 544.840728,284.37963 544.472245,284.583914 L544.472245,284.583914 L538.09347,288.120261 L537.968585,288.198593 C537.609351,288.451976 537.391714,288.866042 537.391714,289.311693 L537.391714,289.311693 L537.391714,296.372701 L537.399491,296.518229 C537.44585,296.950396 537.696783,297.338174 538.079484,297.556272 L538.079484,297.556272 L544.461871,301.193541 L544.605067,301.264387 C544.994934,301.429584 545.44329,301.404983 545.815584,301.190851 L545.815584,301.190851 L552.133128,297.557199 L552.254941,297.478234 C552.605201,297.223706 552.8162,296.815061 552.8162,296.376318 L552.8162,296.376318 L552.8162,289.351347 L552.808376,289.20537 C552.761732,288.771898 552.509283,288.383224 552.124692,288.165654 L552.124692,288.165654 L545.803536,284.589653 Z M551.029544,290.510024 L550.980369,296.384448 L545.865455,299.444279 L546.008862,293.517424 L551.029544,290.510024 Z M539.089664,290.510024 L544.110346,293.517424 L544.253752,299.444279 L539.138839,296.384448 L539.089664,290.510024 Z M593.217582,290.713747 L593.217582,293.85855 C593.084898,293.870667 592.361961,293.930496 590.924048,293.930496 L590.924048,293.930496 L590.689078,293.929838 C589.613719,293.923814 588.839271,293.877988 588.556212,293.85855 L588.556212,293.85855 L588.556212,290.713747 C583.926307,290.918983 580.469706,291.72328 580.469706,292.686979 C580.469706,293.650678 583.925928,294.456081 588.556212,294.660938 L588.556212,294.660938 C588.854561,294.672677 589.701083,294.706756 590.904335,294.706756 L591.147543,294.706394 C592.482771,294.702354 593.092585,294.665777 593.216823,294.657924 L593.216823,294.657924 L593.216823,294.660181 C597.837251,294.452673 601.287028,293.646119 601.287028,292.685828 C601.287028,291.725537 597.838767,290.919362 593.217582,290.713747 L593.217582,290.713747 Z M545.139497,286.15308 L550.257299,288.992455 L545.139497,291.887129 L539.929121,288.992455 L545.139497,286.15308 Z M627.952786,235.794586 C626.68884,234.239858 624.451778,233.854214 622.733169,234.927118 C621.094535,235.950095 620.595447,238.107757 621.618424,239.74639 L621.618424,239.74639 L621.677944,239.838486 C621.698263,239.86887 621.719058,239.898935 621.740322,239.92867 L621.740322,239.92867 L632.548924,255.044139 L517.187024,255.043628 C515.490537,255.043628 513.866635,255.731902 512.686844,256.950983 L512.686844,256.950983 L493.772408,276.495307 C492.583187,277.724131 492.599759,279.679778 493.809634,280.888272 L493.809634,280.888272 L494.984478,282.061775 C496.191323,283.267241 498.141009,283.284964 499.369567,282.101635 L499.369567,282.101635 L517.907213,264.246452 C518.782448,263.403439 519.950352,262.932456 521.165551,262.932456 L521.165551,262.932456 L632.548924,262.933139 L621.740322,278.047414 L621.629374,278.212083 C620.643139,279.768132 621.033761,281.842166 622.550888,282.927067 C622.61036,282.969595 622.671149,283.010248 622.733169,283.048966 C624.513157,284.160189 626.849291,283.70682 628.084417,282.01046 L628.084417,282.01046 L643.505168,260.83113 L643.624815,260.654543 C644.302814,259.576914 644.262931,258.185689 643.505168,257.144954 L643.505168,257.144954 L628.084417,235.965625 Z" id="Combined-Shape" fill="#000000"></path>
            <g id="Group" transform="translate(569.000000, 483.000000) scale(-1, 1) rotate(90.000000) translate(-569.000000, -483.000000) translate(469.000000, 463.000000)" stroke="#000000" stroke-width="6">
                <path d="M180.894427,1.78885438 L199.276393,38.5527864 C199.523382,39.0467649 199.323158,39.6474379 198.82918,39.8944272 C198.690324,39.9638549 198.537211,40 198.381966,40 L161.618034,40 C161.065749,40 160.618034,39.5522847 160.618034,39 C160.618034,38.8447549 160.654179,38.6916418 160.723607,38.5527864 L179.105573,1.78885438 C179.352562,1.29487588 179.953235,1.09465154 180.447214,1.34164079 C180.640741,1.43840449 180.797663,1.59532698 180.894427,1.78885438 Z" id="Triangle" fill="#000000" transform="translate(180.000000, 20.000000) rotate(90.000000) translate(-180.000000, -20.000000) "></path>
                <line x1="158" y1="20" x2="6.19410584e-14" y2="20" id="Line-3" stroke-linecap="square"></line>
            </g>
            <g id="Group" transform="translate(853.500000, 777.500000) scale(-1, 1) translate(-853.500000, -777.500000) translate(749.000000, 757.500000)" stroke="#000000" stroke-width="6">
                <path d="M189.894427,1.78885438 L208.276393,38.5527864 C208.523382,39.0467649 208.323158,39.6474379 207.82918,39.8944272 C207.690324,39.9638549 207.537211,40 207.381966,40 L170.618034,40 C170.065749,40 169.618034,39.5522847 169.618034,39 C169.618034,38.8447549 169.654179,38.6916418 169.723607,38.5527864 L188.105573,1.78885438 C188.352562,1.29487588 188.953235,1.09465154 189.447214,1.34164079 C189.640741,1.43840449 189.797663,1.59532698 189.894427,1.78885438 Z" id="Triangle" fill="#000000" transform="translate(189.000000, 20.000000) rotate(90.000000) translate(-189.000000, -20.000000) "></path>
                <line x1="168" y1="20" x2="6.19410584e-14" y2="20" id="Line-3" stroke-linecap="square"></line>
            </g>
            <g id="Group" transform="translate(180.000000, 757.500000)" stroke="#000000" stroke-width="6">
                <path d="M189.894427,1.78885438 L208.276393,38.5527864 C208.523382,39.0467649 208.323158,39.6474379 207.82918,39.8944272 C207.690324,39.9638549 207.537211,40 207.381966,40 L170.618034,40 C170.065749,40 169.618034,39.5522847 169.618034,39 C169.618034,38.8447549 169.654179,38.6916418 169.723607,38.5527864 L188.105573,1.78885438 C188.352562,1.29487588 188.953235,1.09465154 189.447214,1.34164079 C189.640741,1.43840449 189.797663,1.59532698 189.894427,1.78885438 Z" id="Triangle" fill="#000000" transform="translate(189.000000, 20.000000) rotate(90.000000) translate(-189.000000, -20.000000) "></path>
                <line x1="168" y1="20" x2="6.19410584e-14" y2="20" id="Line-3" stroke-linecap="square"></line>
            </g>
            <g id="Group" transform="translate(564.500000, 1007.500000) rotate(270.000000) translate(-564.500000, -1007.500000) translate(510.000000, 987.500000)" stroke="#000000" stroke-width="6">
                <path d="M89.8944272,1.78885438 L108.276393,38.5527864 C108.523382,39.0467649 108.323158,39.6474379 107.82918,39.8944272 C107.690324,39.9638549 107.537211,40 107.381966,40 L70.618034,40 C70.0657492,40 69.618034,39.5522847 69.618034,39 C69.618034,38.8447549 69.6541791,38.6916418 69.7236068,38.5527864 L88.1055728,1.78885438 C88.3525621,1.29487588 88.9532351,1.09465154 89.4472136,1.34164079 C89.640741,1.43840449 89.7976635,1.59532698 89.8944272,1.78885438 Z" id="Triangle" fill="#000000" transform="translate(89.000000, 20.000000) rotate(90.000000) translate(-89.000000, -20.000000) "></path>
                <line x1="68" y1="20" x2="6.06010968e-14" y2="20" id="Line-3" stroke-linecap="square"></line>
            </g>
            <path d="M439,1153 L439,1082 C439,1070.95431 447.954305,1062 459,1062 L672,1062 C683.045695,1062 692,1070.95431 692,1082 L692,1153 L692,1153" id="Path-12" stroke="#000000" stroke-width="6"></path>
            <g id="Group-2" transform="translate(399.000000, 746.000000)">
                <path d="M32,0 C49.673112,0 64,14.326888 64,32 C64,49.673112 49.673112,64 32,64 C14.326888,64 0,49.673112 0,32 C0,14.326888 14.326888,0 32,0 Z M33.4895095,9 L33.4895095,15.9614884 L33.4837817,15.9982934 C33.4685965,16.0445661 33.4249416,16.0779314 33.3734939,16.0779314 C33.3582908,16.0779314 33.3432348,16.0749542 33.3291759,16.069168 C32.938236,15.9082677 32.5351774,15.8278176 32.12,15.8278176 C31.694384,15.8278176 31.2461626,15.912364 30.7753357,16.0814568 C30.7150138,16.103234 30.6485113,16.0718769 30.6268344,16.0115189 C30.6223121,15.9989271 30.62,15.9856485 30.62,15.9722693 L30.62,15.9722693 L30.62,9 L12.3822394,19.268947 L12.225469,19.3647848 C11.5135336,19.8359642 11.0805477,20.6358999 11.0821608,21.4977523 L11.0821608,21.4977523 L11.12,41.7150127 L17.2851873,38.3991726 L17.3292669,38.385871 C17.3742636,38.3816973 17.4194883,38.4041519 17.442232,38.4464396 C17.4483951,38.4578988 17.452585,38.4703138 17.454626,38.4831641 C17.5325357,38.9736888 17.668153,39.3925397 17.861478,39.7397169 C18.0511706,40.0803709 18.3180036,40.3907746 18.6619769,40.6709279 C18.7119219,40.7112846 18.7194103,40.7845176 18.6788603,40.8343052 C18.6692676,40.846083 18.65746,40.855867 18.6441048,40.8631041 L18.6441048,40.8631041 L12.32,44.2900763 L30.7479139,54.6423976 L30.9205986,54.7316463 C31.7371314,55.1182122 32.6957172,55.0858085 33.4880407,54.6352404 L33.4880407,54.6352404 L51.68,44.2900763 L45.4839688,40.8691556 L45.4488355,40.8393501 C45.4208902,40.8038065 45.4152405,40.7535845 45.4384698,40.7115112 C45.4466115,40.6967648 45.4578663,40.683968 45.4714524,40.67401 C45.8172886,40.4205267 46.0984048,40.1090957 46.3148011,39.7397169 C46.5350839,39.3637041 46.6769166,38.9470762 46.7402994,38.4898333 C46.7492004,38.4264438 46.8077254,38.3821689 46.8711303,38.3909581 C46.8852403,38.392914 46.8988688,38.3974543 46.9113327,38.4043512 L46.9113327,38.4043512 L53,41.7735369 L53,21.493418 L52.9934391,21.3102468 C52.9324672,20.4607946 52.4502171,19.6925056 51.7013852,19.2702171 L51.7013852,19.2702171 L33.4895095,9 Z M30.9825024,17.9337516 C31.6890915,17.541576 32.5488291,17.5452846 33.2520086,17.9435414 L33.2520086,17.9435414 L43.9031709,23.9759955 C44.6304584,24.3879062 45.08,25.1591459 45.08,25.9949793 L45.08,25.9949793 L45.08,37.8490477 C45.08,38.678964 44.6367468,39.4456877 43.9175439,39.8598233 L43.9175439,39.8598233 L33.2725391,45.9894913 C32.5586567,46.4005631 31.6803424,46.4023094 30.9648311,45.9940795 L30.9648311,45.9940795 L20.2104609,39.8582494 C19.4867526,39.4453427 19.04,38.6760996 19.04,37.8428855 L19.04,37.8428855 L19.04,25.9280663 C19.04,25.085069 19.4972119,24.3083902 20.2342897,23.8992926 L20.2342897,23.8992926 Z M42.0637226,27.9436709 L33.5876821,33.0266393 L33.3455797,43.0439374 L41.9807039,37.8723527 L42.0637226,27.9436709 Z M21.9065205,27.9436709 L21.9895392,37.8723527 L30.6246634,43.0439374 L30.382561,33.0266393 L21.9065205,27.9436709 Z M32.12,20.5797641 L23.3237142,25.3787463 L32.12,30.2711909 L40.76,25.3787463 L32.12,20.5797641 Z" id="Combined-Shape" fill="#000000"></path>
                <g id="Group-6" transform="translate(11.082156, 9.000000)"></g>
            </g>
            <g id="Group-2" transform="translate(537.000000, 593.000000)">
                <path d="M32,0 C49.673112,0 64,14.326888 64,32 C64,49.673112 49.673112,64 32,64 C14.326888,64 0,49.673112 0,32 C0,14.326888 14.326888,0 32,0 Z M33.4895095,9 L33.4895095,15.9614884 L33.4837817,15.9982934 C33.4685965,16.0445661 33.4249416,16.0779314 33.3734939,16.0779314 C33.3582908,16.0779314 33.3432348,16.0749542 33.3291759,16.069168 C32.938236,15.9082677 32.5351774,15.8278176 32.12,15.8278176 C31.694384,15.8278176 31.2461626,15.912364 30.7753357,16.0814568 C30.7150138,16.103234 30.6485113,16.0718769 30.6268344,16.0115189 C30.6223121,15.9989271 30.62,15.9856485 30.62,15.9722693 L30.62,15.9722693 L30.62,9 L12.3822394,19.268947 L12.225469,19.3647848 C11.5135336,19.8359642 11.0805477,20.6358999 11.0821608,21.4977523 L11.0821608,21.4977523 L11.12,41.7150127 L17.2851873,38.3991726 L17.3292669,38.385871 C17.3742636,38.3816973 17.4194883,38.4041519 17.442232,38.4464396 C17.4483951,38.4578988 17.452585,38.4703138 17.454626,38.4831641 C17.5325357,38.9736888 17.668153,39.3925397 17.861478,39.7397169 C18.0511706,40.0803709 18.3180036,40.3907746 18.6619769,40.6709279 C18.7119219,40.7112846 18.7194103,40.7845176 18.6788603,40.8343052 C18.6692676,40.846083 18.65746,40.855867 18.6441048,40.8631041 L18.6441048,40.8631041 L12.32,44.2900763 L30.7479139,54.6423976 L30.9205986,54.7316463 C31.7371314,55.1182122 32.6957172,55.0858085 33.4880407,54.6352404 L33.4880407,54.6352404 L51.68,44.2900763 L45.4839688,40.8691556 L45.4488355,40.8393501 C45.4208902,40.8038065 45.4152405,40.7535845 45.4384698,40.7115112 C45.4466115,40.6967648 45.4578663,40.683968 45.4714524,40.67401 C45.8172886,40.4205267 46.0984048,40.1090957 46.3148011,39.7397169 C46.5350839,39.3637041 46.6769166,38.9470762 46.7402994,38.4898333 C46.7492004,38.4264438 46.8077254,38.3821689 46.8711303,38.3909581 C46.8852403,38.392914 46.8988688,38.3974543 46.9113327,38.4043512 L46.9113327,38.4043512 L53,41.7735369 L53,21.493418 L52.9934391,21.3102468 C52.9324672,20.4607946 52.4502171,19.6925056 51.7013852,19.2702171 L51.7013852,19.2702171 L33.4895095,9 Z M30.9825024,17.9337516 C31.6890915,17.541576 32.5488291,17.5452846 33.2520086,17.9435414 L33.2520086,17.9435414 L43.9031709,23.9759955 C44.6304584,24.3879062 45.08,25.1591459 45.08,25.9949793 L45.08,25.9949793 L45.08,37.8490477 C45.08,38.678964 44.6367468,39.4456877 43.9175439,39.8598233 L43.9175439,39.8598233 L33.2725391,45.9894913 C32.5586567,46.4005631 31.6803424,46.4023094 30.9648311,45.9940795 L30.9648311,45.9940795 L20.2104609,39.8582494 C19.4867526,39.4453427 19.04,38.6760996 19.04,37.8428855 L19.04,37.8428855 L19.04,25.9280663 C19.04,25.085069 19.4972119,24.3083902 20.2342897,23.8992926 L20.2342897,23.8992926 Z M42.0637226,27.9436709 L33.5876821,33.0266393 L33.3455797,43.0439374 L41.9807039,37.8723527 L42.0637226,27.9436709 Z M21.9065205,27.9436709 L21.9895392,37.8723527 L30.6246634,43.0439374 L30.382561,33.0266393 L21.9065205,27.9436709 Z M32.12,20.5797641 L23.3237142,25.3787463 L32.12,30.2711909 L40.76,25.3787463 L32.12,20.5797641 Z" id="Combined-Shape" fill="#000000"></path>
                <g id="Group-6" transform="translate(11.082156, 9.000000)"></g>
            </g>
            <g id="Group-2" transform="translate(675.000000, 746.000000)">
                <path d="M32,0 C49.673112,0 64,14.326888 64,32 C64,49.673112 49.673112,64 32,64 C14.326888,64 0,49.673112 0,32 C0,14.326888 14.326888,0 32,0 Z M33.4895095,9 L33.4895095,15.9614884 L33.4837817,15.9982934 C33.4685965,16.0445661 33.4249416,16.0779314 33.3734939,16.0779314 C33.3582908,16.0779314 33.3432348,16.0749542 33.3291759,16.069168 C32.938236,15.9082677 32.5351774,15.8278176 32.12,15.8278176 C31.694384,15.8278176 31.2461626,15.912364 30.7753357,16.0814568 C30.7150138,16.103234 30.6485113,16.0718769 30.6268344,16.0115189 C30.6223121,15.9989271 30.62,15.9856485 30.62,15.9722693 L30.62,15.9722693 L30.62,9 L12.3822394,19.268947 L12.225469,19.3647848 C11.5135336,19.8359642 11.0805477,20.6358999 11.0821608,21.4977523 L11.0821608,21.4977523 L11.12,41.7150127 L17.2851873,38.3991726 L17.3292669,38.385871 C17.3742636,38.3816973 17.4194883,38.4041519 17.442232,38.4464396 C17.4483951,38.4578988 17.452585,38.4703138 17.454626,38.4831641 C17.5325357,38.9736888 17.668153,39.3925397 17.861478,39.7397169 C18.0511706,40.0803709 18.3180036,40.3907746 18.6619769,40.6709279 C18.7119219,40.7112846 18.7194103,40.7845176 18.6788603,40.8343052 C18.6692676,40.846083 18.65746,40.855867 18.6441048,40.8631041 L18.6441048,40.8631041 L12.32,44.2900763 L30.7479139,54.6423976 L30.9205986,54.7316463 C31.7371314,55.1182122 32.6957172,55.0858085 33.4880407,54.6352404 L33.4880407,54.6352404 L51.68,44.2900763 L45.4839688,40.8691556 L45.4488355,40.8393501 C45.4208902,40.8038065 45.4152405,40.7535845 45.4384698,40.7115112 C45.4466115,40.6967648 45.4578663,40.683968 45.4714524,40.67401 C45.8172886,40.4205267 46.0984048,40.1090957 46.3148011,39.7397169 C46.5350839,39.3637041 46.6769166,38.9470762 46.7402994,38.4898333 C46.7492004,38.4264438 46.8077254,38.3821689 46.8711303,38.3909581 C46.8852403,38.392914 46.8988688,38.3974543 46.9113327,38.4043512 L46.9113327,38.4043512 L53,41.7735369 L53,21.493418 L52.9934391,21.3102468 C52.9324672,20.4607946 52.4502171,19.6925056 51.7013852,19.2702171 L51.7013852,19.2702171 L33.4895095,9 Z M30.9825024,17.9337516 C31.6890915,17.541576 32.5488291,17.5452846 33.2520086,17.9435414 L33.2520086,17.9435414 L43.9031709,23.9759955 C44.6304584,24.3879062 45.08,25.1591459 45.08,25.9949793 L45.08,25.9949793 L45.08,37.8490477 C45.08,38.678964 44.6367468,39.4456877 43.9175439,39.8598233 L43.9175439,39.8598233 L33.2725391,45.9894913 C32.5586567,46.4005631 31.6803424,46.4023094 30.9648311,45.9940795 L30.9648311,45.9940795 L20.2104609,39.8582494 C19.4867526,39.4453427 19.04,38.6760996 19.04,37.8428855 L19.04,37.8428855 L19.04,25.9280663 C19.04,25.085069 19.4972119,24.3083902 20.2342897,23.8992926 L20.2342897,23.8992926 Z M42.0637226,27.9436709 L33.5876821,33.0266393 L33.3455797,43.0439374 L41.9807039,37.8723527 L42.0637226,27.9436709 Z M21.9065205,27.9436709 L21.9895392,37.8723527 L30.6246634,43.0439374 L30.382561,33.0266393 L21.9065205,27.9436709 Z M32.12,20.5797641 L23.3237142,25.3787463 L32.12,30.2711909 L40.76,25.3787463 L32.12,20.5797641 Z" id="Combined-Shape" fill="#000000"></path>
                <g id="Group-6" transform="translate(11.082156, 9.000000)"></g>
            </g>
            <g id="Group-2" transform="translate(532.000000, 879.000000)">
                <path d="M32,0 C49.673112,0 64,14.326888 64,32 C64,49.673112 49.673112,64 32,64 C14.326888,64 0,49.673112 0,32 C0,14.326888 14.326888,0 32,0 Z M33.4895095,9 L33.4895095,15.9614884 L33.4837817,15.9982934 C33.4685965,16.0445661 33.4249416,16.0779314 33.3734939,16.0779314 C33.3582908,16.0779314 33.3432348,16.0749542 33.3291759,16.069168 C32.938236,15.9082677 32.5351774,15.8278176 32.12,15.8278176 C31.694384,15.8278176 31.2461626,15.912364 30.7753357,16.0814568 C30.7150138,16.103234 30.6485113,16.0718769 30.6268344,16.0115189 C30.6223121,15.9989271 30.62,15.9856485 30.62,15.9722693 L30.62,15.9722693 L30.62,9 L12.3822394,19.268947 L12.225469,19.3647848 C11.5135336,19.8359642 11.0805477,20.6358999 11.0821608,21.4977523 L11.0821608,21.4977523 L11.12,41.7150127 L17.2851873,38.3991726 L17.3292669,38.385871 C17.3742636,38.3816973 17.4194883,38.4041519 17.442232,38.4464396 C17.4483951,38.4578988 17.452585,38.4703138 17.454626,38.4831641 C17.5325357,38.9736888 17.668153,39.3925397 17.861478,39.7397169 C18.0511706,40.0803709 18.3180036,40.3907746 18.6619769,40.6709279 C18.7119219,40.7112846 18.7194103,40.7845176 18.6788603,40.8343052 C18.6692676,40.846083 18.65746,40.855867 18.6441048,40.8631041 L18.6441048,40.8631041 L12.32,44.2900763 L30.7479139,54.6423976 L30.9205986,54.7316463 C31.7371314,55.1182122 32.6957172,55.0858085 33.4880407,54.6352404 L33.4880407,54.6352404 L51.68,44.2900763 L45.4839688,40.8691556 L45.4488355,40.8393501 C45.4208902,40.8038065 45.4152405,40.7535845 45.4384698,40.7115112 C45.4466115,40.6967648 45.4578663,40.683968 45.4714524,40.67401 C45.8172886,40.4205267 46.0984048,40.1090957 46.3148011,39.7397169 C46.5350839,39.3637041 46.6769166,38.9470762 46.7402994,38.4898333 C46.7492004,38.4264438 46.8077254,38.3821689 46.8711303,38.3909581 C46.8852403,38.392914 46.8988688,38.3974543 46.9113327,38.4043512 L46.9113327,38.4043512 L53,41.7735369 L53,21.493418 L52.9934391,21.3102468 C52.9324672,20.4607946 52.4502171,19.6925056 51.7013852,19.2702171 L51.7013852,19.2702171 L33.4895095,9 Z M30.9825024,17.9337516 C31.6890915,17.541576 32.5488291,17.5452846 33.2520086,17.9435414 L33.2520086,17.9435414 L43.9031709,23.9759955 C44.6304584,24.3879062 45.08,25.1591459 45.08,25.9949793 L45.08,25.9949793 L45.08,37.8490477 C45.08,38.678964 44.6367468,39.4456877 43.9175439,39.8598233 L43.9175439,39.8598233 L33.2725391,45.9894913 C32.5586567,46.4005631 31.6803424,46.4023094 30.9648311,45.9940795 L30.9648311,45.9940795 L20.2104609,39.8582494 C19.4867526,39.4453427 19.04,38.6760996 19.04,37.8428855 L19.04,37.8428855 L19.04,25.9280663 C19.04,25.085069 19.4972119,24.3083902 20.2342897,23.8992926 L20.2342897,23.8992926 Z M42.0637226,27.9436709 L33.5876821,33.0266393 L33.3455797,43.0439374 L41.9807039,37.8723527 L42.0637226,27.9436709 Z M21.9065205,27.9436709 L21.9895392,37.8723527 L30.6246634,43.0439374 L30.382561,33.0266393 L21.9065205,27.9436709 Z M32.12,20.5797641 L23.3237142,25.3787463 L32.12,30.2711909 L40.76,25.3787463 L32.12,20.5797641 Z" id="Combined-Shape" fill="#000000"></path>
                <g id="Group-6" transform="translate(11.082156, 9.000000)"></g>
            </g>
            <text id="Farm" font-family="HelveticaNeue-Bold, Helvetica Neue" font-size="40" font-weight="bold" fill="#000000">
                <tspan x="45" y="672">Farm</tspan>
            </text>
            <text id="Swap" font-family="HelveticaNeue-Bold, Helvetica Neue" font-size="40" font-weight="bold" fill="#000000">
                <tspan x="516" y="180">Swap</tspan>
            </text>
            <text id="Referral" font-family="HelveticaNeue-Bold, Helvetica Neue" font-size="40" font-weight="bold" fill="#000000">
                <tspan x="967" y="669">Referral</tspan>
            </text>
            <text id="HYP-Fixed-Income,-Al" font-family="HelveticaNeue-Bold, Helvetica Neue" font-size="40" font-weight="bold" fill="#000000">
                <tspan x="911" y="1189">HYP</tspan>
                <tspan x="818.86" y="1238.42857">Fixed Income, </tspan>
                <tspan x="849.2" y="1286.42857">Algo, Race</tspan>
                <tspan x="902.12" y="1335.85714">Cube</tspan>
            </text>
            <text id="HyperCube" font-family="HelveticaNeue-Bold, Helvetica Neue" font-size="40" font-weight="bold" fill="#000000">
                <tspan x="110.44" y="1262">HyperCube</tspan>
            </text>
            <text id="Ways-to-Acquire-HYP" font-family="HelveticaNeue-Bold, Helvetica Neue" font-size="60" font-weight="bold" fill="#000000">
                <tspan x="152" y="59">Ways to Acquire HYP Tokens</tspan>
            </text>
        </g>
    </g>
</svg>