<?xml version="1.0" encoding="utf-8"?>
<!-- Generator: Adobe Illustrator 21.1.0, SVG Export Plug-In . SVG Version: 6.00 Build 0)  -->
<svg version="1.1" id="Layer_1" xmlns="http://www.w3.org/2000/svg" xmlns:xlink="http://www.w3.org/1999/xlink" x="0px" y="0px"
	 viewBox="0 0 999 92" style="enable-background:new 0 0 999 92;" xml:space="preserve">
<style type="text/css">
	.st0{fill:#FFFFFF;}
	.st1{font-family:'ArialRoundedMTBold';}
	.st2{font-size:30px;}
	.st3{font-size:24px;}
</style>
<title>Group</title>
<g id="Workpage">
	<g id="Artboard" transform="translate(-165.000000, -451.000000)">
		<g id="Group" transform="translate(165.000000, 451.000000)">
			<rect id="Rectangle_1_" x="845" y="3" class="st0" width="12" height="27"/>
			<rect id="Rectangle_2_" x="812" y="3" class="st0" width="12" height="27"/>
			<rect id="Rectangle_3_" x="779" y="3" class="st0" width="12" height="27"/>
			<rect id="Rectangle_4_" x="746" y="3" class="st0" width="12" height="27"/>
			<rect id="Rectangle_5_" x="680" y="3" class="st0" width="12" height="27"/>
			<rect id="Rectangle_6_" x="647" y="3" class="st0" width="12" height="27"/>
			<rect id="Rectangle_7_" x="614" y="3" class="st0" width="12" height="27"/>
			<rect id="Rectangle_8_" x="581" y="3" class="st0" width="12" height="27"/>
			<rect id="Rectangle_9_" x="515" y="3" class="st0" width="12" height="27"/>
			<rect id="Rectangle_10_" x="482" y="3" class="st0" width="12" height="27"/>
			<rect id="Rectangle_11_" x="449" y="3" class="st0" width="12" height="27"/>
			<rect id="Rectangle_12_" x="416" y="3" class="st0" width="12" height="27"/>
			<rect id="Rectangle_13_" x="713" y="3" class="st0" width="12" height="36"/>
			<rect id="Rectangle_14_" x="548" y="3" class="st0" width="12" height="36"/>
			<rect id="Rectangle_15_" x="383" y="3" class="st0" width="12" height="36"/>
			<rect id="Rectangle_16_" x="350" y="3" class="st0" width="12" height="27"/>
			<rect id="Rectangle_17_" x="317" y="3" class="st0" width="12" height="27"/>
			<rect id="Rectangle_18_" x="284" y="3" class="st0" width="12" height="27"/>
			<rect id="Rectangle_19_" x="251" y="3" class="st0" width="12" height="27"/>
			<rect id="Rectangle_20_" x="218" y="3" class="st0" width="12" height="36"/>
			<rect id="Rectangle_21_" x="185" y="3" class="st0" width="12" height="27"/>
			<rect id="Rectangle_22_" x="152" y="3" class="st0" width="12" height="27"/>
			<rect id="Rectangle_23_" x="119" y="3" class="st0" width="12" height="27"/>
			<rect id="Rectangle_24_" x="86" y="3" class="st0" width="12" height="27"/>
			<rect id="Rectangle_25_" x="53" y="3" class="st0" width="12" height="36"/>
			<text transform="matrix(1 0 0 1 50.0864 75)" class="st0 st1 st2">0</text>
			<text transform="matrix(1 0 0 1 197.2593 75)" class="st0 st1 st2">100</text>
			<text transform="matrix(1 0 0 1 362.2593 75)" class="st0 st1 st2">500</text>
			<text transform="matrix(1 0 0 1 515.3457 76)" class="st0 st1 st2">1000</text>
			<text transform="matrix(1 0 0 1 674.4321 76)" class="st0 st1 st2">10000</text>
			<text transform="matrix(1 0 0 1 873.1211 59)" class="st0 st1 st3">and </text>
			<text transform="matrix(1 0 0 1 864.748 87)" class="st0 st1 st3">more</text>
		</g>
	</g>
</g>
</svg>
