<?xml version="1.0" encoding="utf-8"?>
<!-- Generator: Adobe Illustrator 26.0.3, SVG Export Plug-In . SVG Version: 6.00 Build 0)  -->
<svg version="1.1" id="Livello_1" xmlns="http://www.w3.org/2000/svg" xmlns:xlink="http://www.w3.org/1999/xlink" x="0px" y="0px"
	 viewBox="0 0 305 173" style="enable-background:new 0 0 305 173;" xml:space="preserve">
<style type="text/css">
	.st0{opacity:0.2071;fill-rule:evenodd;clip-rule:evenodd;fill:#AC78AC;stroke:#979797;enable-background:new    ;}
	.st1{fill-rule:evenodd;clip-rule:evenodd;}
	.st2{fill-rule:evenodd;clip-rule:evenodd;stroke:url(#SVGID_1_);stroke-width:5;}
	.st3{fill:none;}
	.st4{fill:#FFFFFF;}
	.st5{fill:#BCD8A1;}
	.st6{fill:#4A90E2;}
	.st7{fill:#007850;}
</style>
<g id="Artboard">
	<g id="Group-2">
		<path class="st0" d="M294.5,0.5h-284c-5.5,0-10,4.5-10,10v152c0,5.5,4.5,10,10,10h284c5.5,0,10-4.5,10-10v-152
			C304.5,5,300,0.5,294.5,0.5z M282.5,140.5c0,5.5-4.5,10-10,10h-240c-5.5,0-10-4.5-10-10v-108c0-5.5,4.5-10,10-10h240
			c5.5,0,10,4.5,10,10V140.5z"/>
		<g id="Rectangle_00000132770599735108350520000004438977647372441743_">
			<g>
				<path class="st1" d="M275,20H30c-5.5,0-10,4.5-10,10v113c0,5.5,4.5,10,10,10h245c5.5,0,10-4.5,10-10V30
					C285,24.5,280.5,20,275,20z M282.5,140.5c0,5.5-4.5,10-10,10h-240c-5.5,0-10-4.5-10-10v-108c0-5.5,4.5-10,10-10h240
					c5.5,0,10,4.5,10,10V140.5z"/>
			</g>
			
				<linearGradient id="SVGID_1_" gradientUnits="userSpaceOnUse" x1="83.9895" y1="70.5536" x2="199.0546" y2="98.8308" gradientTransform="matrix(1 0 0 -1 0 173.89)">
				<stop  offset="3.824301e-04" style="stop-color:#FFFFFF"/>
				<stop  offset="1" style="stop-color:#6E416E"/>
			</linearGradient>
			<path class="st2" d="M282.5,32.5v108c0,5.5-4.5,10-10,10h-240c-5.5,0-10-4.5-10-10v-108c0-5.5,4.5-10,10-10h240
				C278,22.5,282.5,27,282.5,32.5z"/>
		</g>
	</g>
</g>
<g>
	<g>
		<path class="st3" d="M46.6,103.2l9.3,2.9L46.6,103.2z"/>
		<path class="st4" d="M37.5,108.3L37.5,108.3L37.5,108.3z"/>
		<polygon class="st4" points="42.3,72.8 37.5,72.8 37.5,92.2 42.3,89.3 		"/>
		<g>
			<path class="st5" d="M62.7,108.3L62.7,108.3L62.7,108.3z"/>
			<polygon class="st4" points="86.1,101.8 86.1,72.8 91,72.8 91,108.3 65.7,108.3 			"/>
			<g>
				<polygon class="st6" points="78.3,96.1 78.3,75.4 65.7,79.3 65.7,71.2 86.1,64.7 86.1,101.8 65.7,108.3 65.7,100.1 				"/>
				<polygon class="st6" points="55.9,106.1 62.7,108.3 62.7,100.1 52.8,96.9 46.6,103.2 				"/>
				<polygon class="st6" points="50.1,75.4 62.7,79.3 62.7,71.2 42.3,64.7 42.3,89.3 50.1,84.5 				"/>
			</g>
			<polygon class="st4" points="55.9,106.1 46.6,103.2 41.6,108.3 62.7,108.3 			"/>
			<path class="st7" d="M62.7,108.3L62.7,108.3L62.7,108.3z"/>
			<polygon class="st7" points="62.7,108.3 62.7,108.3 62.7,108.3 55.9,106.1 			"/>
			<polygon class="st4" points="64.2,89.9 56.4,84.2 37.5,95.6 37.5,108.3 56.4,89 64.2,92.9 72.5,83.5 72.9,86.4 75.5,79.4 
				68.5,82.1 71.6,82.5 			"/>
			<g>
				<g>
					<path class="st4" d="M117.1,88.1c-0.3-2.1-1.6-3.1-3.7-3.1c-3.2,0-4.2,3.2-4.2,5.9c0,2.6,1,5.8,4.1,5.8c2.3,0,3.7-1.5,4-3.7
						h4.8c-0.6,4.8-4,7.4-8.7,7.4c-5.5,0-9.2-3.8-9.2-9.4c0-5.7,3.4-9.8,9.3-9.8c4.3,0,8.2,2.2,8.5,6.9H117.1z"/>
					<path class="st4" d="M133.7,81.2c5.8,0,9.4,3.8,9.4,9.6c0,5.8-3.7,9.6-9.4,9.6c-5.7,0-9.4-3.8-9.4-9.6
						C124.3,85,128,81.2,133.7,81.2z M133.7,96.6c3.4,0,4.4-2.9,4.4-5.8c0-2.9-1-5.8-4.4-5.8c-3.4,0-4.4,2.9-4.4,5.8
						C129.3,93.7,130.4,96.6,133.7,96.6z"/>
					<path class="st4" d="M151.5,78.9h-5v-4.1h5V78.9z M146.5,81.7h5v18.2h-5V81.7z"/>
					<path class="st4" d="M155.5,81.7h4.8v2.5h0.1c1.3-2.1,3.5-3,5.5-3c5.3,0,6.7,3,6.7,7.5v11.2h-5V89.6c0-3-0.8-4.4-3.2-4.4
						c-2.7,0-3.8,1.5-3.8,5.2v9.5h-5V81.7z"/>
				</g>
				<g>
					<path class="st4" d="M189.4,87.4c-0.6-2.7-2.2-4.4-5.1-4.4c-4.2,0-6.4,3.8-6.4,7.7c0,3.8,2.1,7.7,6.4,7.7c2.8,0,5-2.1,5.3-5.1
						h2.2c-0.6,4.4-3.5,7.1-7.5,7.1c-5.5,0-8.6-4.4-8.6-9.6c0-5.2,3-9.6,8.6-9.6c3.8,0,6.8,2.1,7.4,6.2L189.4,87.4L189.4,87.4z"/>
					<path class="st4" d="M211.1,90.8c0,5.2-3,9.6-8.6,9.6c-5.6,0-8.6-4.4-8.6-9.6c0-5.2,3-9.6,8.6-9.6
						C208.1,81.2,211.1,85.6,211.1,90.8z M196.1,90.8c0,3.8,2.1,7.7,6.4,7.7c4.2,0,6.4-3.8,6.4-7.7c0-3.8-2.1-7.7-6.4-7.7
						C198.2,83,196.1,87,196.1,90.8z"/>
					<path class="st4" d="M230.3,99.8h-2.1v-3.5h-0.1c-0.9,2.4-3.8,4-6.4,4c-5.5,0-8.1-4.4-8.1-9.6c0-5.1,2.6-9.6,8.1-9.6
						c2.7,0,5.4,1.4,6.3,4h0.1V74.8h2.2V99.8z M221.7,98.5c4.7,0,6.4-4,6.4-7.7c0-3.8-1.7-7.7-6.4-7.7c-4.2,0-6,4-6,7.7
						C215.8,94.6,217.5,98.5,221.7,98.5z"/>
					<path class="st4" d="M235.8,91.4c0,3.2,1.7,7.1,6,7.1c3.2,0,5-1.9,5.7-4.7h2.2c-0.9,4.1-3.4,6.5-7.9,6.5
						c-5.8,0-8.2-4.4-8.2-9.6c0-4.8,2.5-9.6,8.2-9.6c5.8,0,8.1,5.1,8,10.2H235.8z M247.6,89.5c-0.1-3.4-2.1-6.4-5.8-6.4
						s-5.6,3.1-6,6.4H247.6z"/>
					<path class="st4" d="M257.8,90.4l-6.5-8.7h2.8l5.1,6.9l5.1-6.9h2.8l-6.5,8.7l7.1,9.4h-2.8l-5.7-7.7l-5.6,7.7h-2.8L257.8,90.4z"
						/>
				</g>
			</g>
		</g>
	</g>
</g>
</svg>
