<?xml version="1.0" encoding="utf-8"?>
<!-- Generator: Adobe Illustrator 26.0.3, SVG Export Plug-In . SVG Version: 6.00 Build 0)  -->
<svg version="1.1" id="Livello_1" xmlns="http://www.w3.org/2000/svg" xmlns:xlink="http://www.w3.org/1999/xlink" x="0px" y="0px"
	 viewBox="0 0 305 173" style="enable-background:new 0 0 305 173;" xml:space="preserve">
<style type="text/css">
	.st0{opacity:0.2071;fill-rule:evenodd;clip-rule:evenodd;fill:#AC78AC;stroke:#979797;enable-background:new    ;}
	.st1{fill-rule:evenodd;clip-rule:evenodd;}
	.st2{fill-rule:evenodd;clip-rule:evenodd;stroke:url(#SVGID_1_);stroke-width:5;}
	.st3{fill:#FFFFFF;}
</style>
<g id="Artboard">
	<g id="Group-2">
		<path class="st0" d="M294.5,0.5h-284c-5.5,0-10,4.5-10,10v152c0,5.5,4.5,10,10,10h284c5.5,0,10-4.5,10-10v-152
			C304.5,5,300,0.5,294.5,0.5z M282.5,140.5c0,5.5-4.5,10-10,10h-240c-5.5,0-10-4.5-10-10v-108c0-5.5,4.5-10,10-10h240
			c5.5,0,10,4.5,10,10V140.5z"/>
		<g id="Rectangle_00000132770599735108350520000004438977647372441743_">
			<g>
				<path class="st1" d="M275,20H30c-5.5,0-10,4.5-10,10v113c0,5.5,4.5,10,10,10h245c5.5,0,10-4.5,10-10V30
					C285,24.5,280.5,20,275,20z M282.5,140.5c0,5.5-4.5,10-10,10h-240c-5.5,0-10-4.5-10-10v-108c0-5.5,4.5-10,10-10h240
					c5.5,0,10,4.5,10,10V140.5z"/>
			</g>
			
				<linearGradient id="SVGID_1_" gradientUnits="userSpaceOnUse" x1="83.9895" y1="771.3364" x2="199.0546" y2="743.0592" gradientTransform="matrix(1 0 0 1 0 -668)">
				<stop  offset="3.824301e-04" style="stop-color:#FFFFFF"/>
				<stop  offset="1" style="stop-color:#6E416E"/>
			</linearGradient>
			<path class="st2" d="M282.5,32.5v108c0,5.5-4.5,10-10,10h-240c-5.5,0-10-4.5-10-10v-108c0-5.5,4.5-10,10-10h240
				C278,22.5,282.5,27,282.5,32.5z"/>
		</g>
	</g>
</g>
<g>
	<path class="st3" d="M177.6,74.1c-3.7,0-6.6,0.8-9.5,2.4c0-8.5,0-16.1,0.3-18.8l-17.7,3.2v1.6l1.9,0.3c2.4,0.5,3.2,1.8,3.7,5
		c0.5,6.3,0.3,40.2,0,45.7c4.8,1.1,9.8,1.9,14.8,1.9c14,0,22.5-8.7,22.5-22.5C193.5,82,186.6,74.1,177.6,74.1L177.6,74.1z
		 M171.5,112.4c-1.1,0-2.4,0-3.2-0.3c-0.3-3.7-0.5-19.3-0.3-33c1.6-0.5,2.6-0.8,4-0.8c5.8,0,9,6.9,9,15.3
		C181,104.2,177.1,112.4,171.5,112.4L171.5,112.4z M84,58.7H37.5v2.4l2.6,0.3c3.4,0.5,4.8,2.6,5.3,7.7c0.8,9.5,0.5,26.7,0,34.9
		c-0.5,5-1.8,7.4-5.3,7.7l-2.6,0.5v2.1h29.9v-2.1l-3.2-0.5c-3.4-0.3-4.8-2.6-5.3-7.7c-0.3-3.4-0.5-9-0.5-15.9l6.3,0.3
		c4,0,5.8,3.2,6.6,7.7h2.4V77.2h-2.4c-0.8,4.5-2.6,7.7-6.6,7.7l-6.3,0.3c0-9,0.3-17.4,0.5-22.5h9.3c7.1,0,10.8,4.5,13.5,12.4
		l2.6-0.8L84,58.7L84,58.7z"/>
	<path class="st3" d="M99.1,73.5c13.2,0,19.8,9,19.8,20.9c0,11.4-7.4,20.9-20.6,20.9c-13.2,0-19.8-9-19.8-20.9
		C78.5,83.1,85.9,73.5,99.1,73.5L99.1,73.5z M98.3,76.2c-5.8,0-7.4,7.9-7.4,18.2c0,10,2.6,18.2,7.9,18.2c6.1,0,7.7-7.9,7.7-18.2
		C106.5,84.4,103.9,76.2,98.3,76.2z M196.9,94.7c0-10.8,6.9-21.1,20.4-21.1c11.1,0,16.4,8.2,16.4,19h-24.6
		c-0.3,9.8,4.5,16.9,14,16.9c4.2,0,6.3-1.1,9-2.9l1.1,1.3c-2.6,3.7-8.5,7.4-15.9,7.4C205.4,115.3,196.9,106.9,196.9,94.7L196.9,94.7
		z M209.1,89.7l12.4-0.3c0-5.3-0.8-13.2-5.3-13.2C211.7,76.2,209.3,83.6,209.1,89.7z M265.1,75.7c-3.2-1.3-7.4-2.1-12.2-2.1
		c-9.8,0-15.9,5.8-15.9,12.7c0,6.9,4.5,9.8,10.8,11.9c6.6,2.4,8.5,4.2,8.5,7.4s-2.4,6.1-6.6,6.1c-5,0-8.7-2.9-11.6-10.8l-1.9,0.5
		l0.3,11.6c3.2,1.3,9,2.4,14,2.4c10.3,0,16.9-5.3,16.9-13.5c0-5.6-2.9-8.7-9.8-11.4c-7.4-2.9-10-4.8-10-8.2c0-3.4,2.4-5.8,5.6-5.8
		c4.8,0,7.9,2.9,10.3,10l1.8-0.5L265.1,75.7L265.1,75.7z M153.3,74.6c-4.5-2.6-12.4-1.3-16.7,8.2l0.3-9.3L119.2,77v1.6l1.9,0.3
		c2.4,0.3,3.4,1.6,3.7,5c0.5,6.3,0.3,17.4,0,23c-0.3,3.2-1.3,4.8-3.7,5l-1.9,0.3v2.1h24.6v-2.1l-3.2-0.3c-2.6-0.3-3.4-1.9-3.7-5
		c-0.5-5-0.5-15.1-0.3-21.4c1.3-1.9,7.1-3.4,12.4,0L153.3,74.6L153.3,74.6z"/>
</g>
</svg>
