<?xml version="1.0" encoding="utf-8"?>
<!-- Generator: Adobe Illustrator 26.0.3, SVG Export Plug-In . SVG Version: 6.00 Build 0)  -->
<svg version="1.1" id="Livello_1" xmlns="http://www.w3.org/2000/svg" xmlns:xlink="http://www.w3.org/1999/xlink" x="0px" y="0px"
	 viewBox="0 0 305 173" style="enable-background:new 0 0 305 173;" xml:space="preserve">
<style type="text/css">
	.st0{opacity:0.2071;fill-rule:evenodd;clip-rule:evenodd;fill:#AC78AC;stroke:#979797;enable-background:new    ;}
	.st1{fill-rule:evenodd;clip-rule:evenodd;}
	.st2{fill-rule:evenodd;clip-rule:evenodd;stroke:url(#SVGID_1_);stroke-width:5;}
	.st3{fill:#FFFFFF;}
	.st4{fill:#FF9D00;}
</style>
<g id="Artboard">
	<g id="Group-2">
		<path class="st0" d="M294.5,0.5h-284c-5.5,0-10,4.5-10,10v152c0,5.5,4.5,10,10,10h284c5.5,0,10-4.5,10-10v-152
			C304.5,5,300,0.5,294.5,0.5z M282.5,140.5c0,5.5-4.5,10-10,10h-240c-5.5,0-10-4.5-10-10v-108c0-5.5,4.5-10,10-10h240
			c5.5,0,10,4.5,10,10V140.5z"/>
		<g id="Rectangle_00000132770599735108350520000004438977647372441743_">
			<g>
				<path class="st1" d="M275,20H30c-5.5,0-10,4.5-10,10v113c0,5.5,4.5,10,10,10h245c5.5,0,10-4.5,10-10V30
					C285,24.5,280.5,20,275,20z M282.5,140.5c0,5.5-4.5,10-10,10h-240c-5.5,0-10-4.5-10-10v-108c0-5.5,4.5-10,10-10h240
					c5.5,0,10,4.5,10,10V140.5z"/>
			</g>
			
				<linearGradient id="SVGID_1_" gradientUnits="userSpaceOnUse" x1="83.9895" y1="70.5536" x2="199.0546" y2="98.8308" gradientTransform="matrix(1 0 0 -1 0 173.89)">
				<stop  offset="3.824301e-04" style="stop-color:#FFFFFF"/>
				<stop  offset="1" style="stop-color:#6E416E"/>
			</linearGradient>
			<path class="st2" d="M282.5,32.5v108c0,5.5-4.5,10-10,10h-240c-5.5,0-10-4.5-10-10v-108c0-5.5,4.5-10,10-10h240
				C278,22.5,282.5,27,282.5,32.5z"/>
		</g>
	</g>
</g>
<g>
	<g id="Layer_2_00000078016965828660138570000014024524181741626290_">
		<g id="Layer_1-2_00000098934231575076014800000015083993473562624143_">
			<g id="CoinQuoraLogoFinal3_00000173132183219730732170000011468474192351037118_">
				<path id="Path_33_00000177482410063134256330000009008168582581391012_" class="st3" d="M92.3,96.9c-2.3,0-4.4-0.4-6.1-1.3
					c-1.7-0.9-3.1-2.2-4.1-3.9c-1-1.7-1.4-3.7-1.4-5.9c0-2.3,0.5-4.2,1.4-5.9c0.9-1.7,2.4-3,4.1-3.9c1.8-0.9,3.8-1.4,6.1-1.4
					c1.4,0,2.8,0.1,4.1,0.5c1.2,0.3,2.3,0.8,3.3,1.4v5.2c-0.9-0.7-1.9-1.2-3.1-1.6c-1.3-0.3-2.6-0.5-3.9-0.5c-2.1,0-3.7,0.5-4.9,1.6
					c-1.1,1.1-1.7,2.6-1.7,4.6c0,1.9,0.6,3.5,1.7,4.6c1.2,1.1,2.8,1.7,4.9,1.7c1.3,0,2.7-0.2,4-0.5c1.2-0.4,2.3-0.9,3.3-1.7v5.1
					C98,96.3,95.5,96.9,92.3,96.9z M112.3,96.9c-2,0-4.1-0.5-5.9-1.4c-1.7-0.9-3.1-2.3-4.1-3.9c-1-1.7-1.5-3.6-1.5-5.8
					c0-2,0.5-4.1,1.5-5.8c1-1.7,2.4-3,4.1-4c3.7-1.9,8-1.9,11.7,0c1.7,0.9,3.1,2.3,4.1,4c1,1.8,1.5,3.8,1.5,5.8
					c0,2.2-0.5,4.1-1.5,5.8c-1,1.7-2.4,3-4.1,3.9C116.3,96.5,114.3,97,112.3,96.9L112.3,96.9z M112.3,91.8c1,0,2.1-0.2,3-0.7
					c0.9-0.5,1.6-1.2,2.1-2.1c0.5-1,0.8-2.1,0.8-3.2c0-1.1-0.2-2.2-0.8-3.2c-0.5-0.9-1.2-1.6-2.1-2.1c-0.9-0.5-2-0.8-3-0.8
					c-1.1,0-2.1,0.2-3,0.8c-0.9,0.5-1.6,1.2-2.1,2.1c-0.5,1-0.8,2.1-0.8,3.2c0,1.1,0.2,2.2,0.8,3.2c0.5,0.9,1.2,1.6,2.1,2.1
					C110.2,91.6,111.2,91.9,112.3,91.8L112.3,91.8z M125.9,75h5.4v21.4h-5.4L125.9,75z M134.1,75h5.4l7.9,12.8V75h5.4v21.4h-5.3
					l-7.9-12.8v12.8h-5.4L134.1,75z"/>
				<path id="Path_32_00000175303031313271811100000014694536910198928524_" class="st4" d="M167.7,96.5c-2.4,0-4.6-0.4-6.4-1.3
					c-1.8-0.8-3.2-2.1-4.3-3.7c-1-1.6-1.5-3.5-1.5-5.7c0-2,0.5-4.1,1.5-5.8c1-1.7,2.4-3,4.1-3.9c3.7-1.9,8-1.9,11.7,0
					c1.7,0.9,3.1,2.3,4.1,3.9c1,1.8,1.5,3.8,1.5,5.8c0,1.3-0.3,2.5-0.9,3.6c-0.5,1.1-1.2,2.1-2.2,2.9h3.6v4.2L167.7,96.5z M167,91.8
					c1,0,2.1-0.2,3-0.7c0.9-0.5,1.6-1.2,2.1-2.1c0.5-1,0.8-2.1,0.8-3.2c0-1.1-0.2-2.2-0.8-3.2c-0.5-0.9-1.2-1.6-2.1-2.1
					c-0.9-0.5-2-0.8-3-0.8c-1.1,0-2.1,0.2-3,0.8c-0.9,0.5-1.6,1.2-2.1,2.1c-0.5,1-0.8,2.1-0.8,3.2c0,1.1,0.2,2.2,0.8,3.2
					c0.5,0.9,1.2,1.6,2.1,2.1C165,91.6,166,91.9,167,91.8L167,91.8z M190.4,96.9c-3.2,0-5.7-0.9-7.3-2.6s-2.5-4-2.5-6.9V75h5.4v12.5
					c0,1.4,0.4,2.5,1.2,3.3c0.8,0.7,1.8,1.1,3.2,1.1c1.3,0,2.4-0.4,3.2-1.1c0.8-0.7,1.1-1.8,1.1-3.3V75h5.4v12.4
					c0,2.9-0.8,5.2-2.4,6.9S193.6,96.9,190.4,96.9z M213.6,96.9c-2,0-4.1-0.5-5.9-1.4c-1.7-0.9-3.1-2.3-4.1-3.9
					c-1-1.7-1.5-3.6-1.5-5.8c0-2,0.5-4.1,1.5-5.8c1-1.7,2.4-3,4.1-4c3.7-1.9,8-1.9,11.7,0c1.7,0.9,3.1,2.3,4.1,4
					c1,1.8,1.5,3.8,1.5,5.8c0,2.2-0.5,4.1-1.5,5.8c-1,1.7-2.4,3-4.1,3.9C217.6,96.5,215.6,97,213.6,96.9L213.6,96.9z M213.6,91.8
					c1,0,2.1-0.2,3-0.7c0.9-0.5,1.6-1.2,2.1-2.1c0.5-1,0.8-2.1,0.8-3.2c0-1.1-0.2-2.2-0.8-3.2c-0.5-0.9-1.2-1.6-2.1-2.1
					c-0.9-0.5-2-0.8-3-0.8c-1.1,0-2.1,0.2-3,0.8c-0.9,0.5-1.6,1.2-2.1,2.1c-0.5,1-0.8,2.1-0.8,3.2c0,1.1,0.2,2.2,0.8,3.2
					c0.5,0.9,1.2,1.6,2.1,2.1C211.5,91.6,212.5,91.9,213.6,91.8L213.6,91.8z M227.2,75h9.6c2.5,0,4.5,0.6,5.9,1.9s2.1,3.1,2.1,5.5
					c0,1.6-0.3,3-1,4.1c-0.7,1.1-1.7,2-2.9,2.5l3.8,7.5h-5.6l-3.4-6.7h-3.1v6.7h-5.4L227.2,75z M235.9,85.2c1.1,0,1.9-0.2,2.5-0.6
					s0.9-1.1,0.9-2.2c0-1.1-0.3-1.8-0.9-2.2c-0.6-0.4-1.4-0.6-2.5-0.6h-3.3v5.6L235.9,85.2z M253.6,75h5.3l8.6,21.4H262l-1.7-4.4
					h-7.9l-1.7,4.4H245L253.6,75z M258.9,87.9l-2.6-7.2l-2.6,7.2H258.9z"/>
				<path id="Subtraction_49_00000023259219190841658780000000927013538519083424_" class="st4" d="M56.4,105.6
					c-2.5,0-5-0.5-7.3-1.5c-2.2-1-4.3-2.4-6-4.1c-5.4-5.5-7-13.8-4-20.9c0.9-2.3,2.3-4.3,4-6.1c7.2-7.4,19.1-7.5,26.5-0.2
					c0.1,0.1,0.1,0.1,0.2,0.2c7,7,7.4,18.2,1.1,25.8l-5.7,0c6.8-5,8.3-14.6,3.3-21.4c-0.4-0.6-0.9-1.2-1.4-1.7
					C61.2,70,51.9,69.9,46,75.6c-0.1,0.1-0.1,0.1-0.2,0.2c-4.3,4.4-5.6,10.9-3.2,16.6c0.7,1.8,1.8,3.4,3.2,4.8
					c1.4,1.4,3,2.5,4.7,3.2c1.8,0.8,3.8,1.2,5.8,1.2c0.1,0,0.2,0,0.3,0l0,0h11.2C64.6,104.2,60.5,105.6,56.4,105.6z M56.4,98.8
					c-1.6,0-3.2-0.3-4.7-1c-1.4-0.6-2.8-1.5-3.9-2.6c-1.1-1.1-2-2.5-2.6-3.9c-1.3-3.1-1.3-6.5,0-9.6c0.6-1.5,1.5-2.8,2.6-3.9
					c1.1-1.1,2.4-2,3.9-2.6c3-1.3,6.4-1.3,9.4,0c1.4,0.6,2.8,1.5,3.8,2.6c1.1,1.1,2,2.5,2.6,3.9c1.3,3.1,1.3,6.5,0,9.6
					c-0.6,1.5-1.5,2.8-2.6,3.9c-1.1,1.1-2.4,2-3.8,2.6C59.6,98.5,58,98.9,56.4,98.8z M56.2,77c-1.2,0-2.5,0.3-3.6,0.7
					c-1.1,0.5-2.1,1.2-3,2c-0.9,0.9-1.5,1.9-2,3c-1,2.4-1,5,0,7.4c0.5,1.1,1.1,2.2,2,3c0.8,0.9,1.8,1.6,2.9,2c2.3,1,4.9,1,7.2,0
					c1.1-0.5,2.1-1.2,2.9-2l0,0l0,0l-2-2l0,0v0c-2.4,2.5-6.5,2.6-9,0.2c-0.1-0.1-0.1-0.1-0.2-0.2c-2.5-2.7-2.5-6.8,0-9.5
					c2.4-2.5,6.5-2.6,9-0.2c0,0,0,0,0,0c0.1,0.1,0.1,0.1,0.2,0.2l0,0l0,0l2-2l0,0l0,0c-0.8-0.9-1.8-1.6-2.9-2
					C58.7,77.2,57.5,77,56.2,77z"/>
			</g>
		</g>
	</g>
</g>
</svg>
