<?xml version="1.0" encoding="utf-8"?>
<!-- Generator: Adobe Illustrator 26.0.3, SVG Export Plug-In . SVG Version: 6.00 Build 0)  -->
<svg version="1.1" id="Livello_1" xmlns="http://www.w3.org/2000/svg" xmlns:xlink="http://www.w3.org/1999/xlink" x="0px" y="0px"
	 viewBox="0 0 305 173" style="enable-background:new 0 0 305 173;" xml:space="preserve">
<style type="text/css">
	.st0{opacity:0.2071;fill-rule:evenodd;clip-rule:evenodd;fill:#AC78AC;stroke:#979797;enable-background:new    ;}
	.st1{fill-rule:evenodd;clip-rule:evenodd;}
	.st2{fill-rule:evenodd;clip-rule:evenodd;fill:#FFFFFF;stroke:url(#SVGID_1_);stroke-width:5;}
</style>
<g id="Artboard">
	<g id="Group-2">
		<path id="Rectangle" class="st0" d="M10.5,0.5h284c5.5,0,10,4.5,10,10v152c0,5.5-4.5,10-10,10h-284c-5.5,0-10-4.5-10-10v-152
			C0.5,5,5,0.5,10.5,0.5z"/>
		<g id="Rectangle_00000132770599735108350520000004438977647372441743_">
			<g>
				<path id="path-2_00000069361787527260931770000008618717408335618435_" class="st1" d="M30,20h245c5.5,0,10,4.5,10,10v113
					c0,5.5-4.5,10-10,10H30c-5.5,0-10-4.5-10-10V30C20,24.5,24.5,20,30,20z"/>
			</g>
			
				<linearGradient id="SVGID_1_" gradientUnits="userSpaceOnUse" x1="-289.8766" y1="5.3521" x2="-287.3708" y2="5.9679" gradientTransform="matrix(260 0 0 128 75132.5 -645.4982)">
				<stop  offset="3.824301e-04" style="stop-color:#FFFFFF"/>
				<stop  offset="1" style="stop-color:#6E416E"/>
			</linearGradient>
			<path class="st2" d="M32.5,22.5h240c5.5,0,10,4.5,10,10v108c0,5.5-4.5,10-10,10h-240c-5.5,0-10-4.5-10-10v-108
				C22.5,27,27,22.5,32.5,22.5z"/>
		</g>
	</g>
</g>
<g id="logo_x2F_白">
	<path id="形状结合" d="M209.8,83.8v5.8h-18.2v7.7h18.9v6.3h-25.2c0-6.5,0-13.1,0-19.7H209.8z M74.2,69.6c0.4,0,0.6,0.1,0.7,0.4
		c4.9,11,9.8,22,14.7,33c0,0.1,0.1,0.2,0.2,0.4h-2.5l0,0c-1.3,0-2.5,0-3.8,0c-0.5,0-0.7-0.1-0.9-0.6c-2.9-6.7-5.8-13.4-8.7-20
		c-0.9-2-1.8-4-2.7-6.1C71,77,71,77.1,70.8,77.3c-3.7,8.5-7.4,17-11.1,25.5c-0.2,0.4-0.4,0.6-0.9,0.6c-1.7,0-3.3,0-5,0l-1.3,0l0,0
		l0.4-0.6l0,0c4.9-10.8,9.7-21.7,14.6-32.5c0.2-0.4,0.4-0.6,0.9-0.6C70.3,69.6,72.2,69.6,74.2,69.6z M103.7,69.7
		c0.4,0,0.6,0.1,0.8,0.4c3.3,4.5,6.5,9,9.8,13.5c0.1,0.2,0.2,0.4,0.4,0.6c0.2-0.2,0.3-0.4,0.4-0.5c3.3-4.5,6.5-9,9.8-13.5
		c0.3-0.4,0.5-0.5,1-0.5c2,0,4,0,6,0h0.6l0,0v33.7l0,0h-6.3l0,0V79.2l0,0c0,0-0.1,0-0.1-0.1c-0.1,0.2-0.2,0.3-0.4,0.5
		c-3.4,4.5-6.8,9-10.1,13.5c-0.6,0.8-1.5,0.8-2,0c-3.3-4.5-6.6-9-9.8-13.5c-0.1-0.2-0.2-0.4-0.4-0.5c0,0-0.1,0-0.1,0.1v24.3l0,0
		h-6.3l0,0V69.7l0,0c0.2,0,0.4,0,0.5,0H103.7L103.7,69.7z M238.8,69.5c2,0,3.8,0.4,5.6,1.2c4,1.9,6.4,5.9,6.2,10.4
		c-0.1,1.4-0.3,2.8-0.8,4.1c-1.3,3.2-3.7,5-6.9,5.9c-0.2,0-0.4,0.1-0.8,0.2c0.3,0.4,0.6,0.7,0.8,1c3,3.4,6,6.8,9,10.2
		c0.2,0.2,0.3,0.5,0.5,0.8h-7.2l0,0c-0.3,0-0.6-0.2-0.8-0.4c-3-3.5-6-6.9-9-10.4c-0.4-0.4-0.7-0.6-1.2-0.6c-1.8,0-3.5,0-5.3,0v11.3
		l0,0c-2.2,0-4.3,0-6.4,0V86.2l0,0h0.7l0,0c5,0,10,0,15,0c0.9,0,1.8-0.1,2.6-0.3c2.4-0.7,3.8-3,3.5-5.9c-0.2-2.4-2.1-4.3-4.6-4.6
		c-0.4-0.1-0.9-0.1-1.3-0.1l-15.9,0l0,0v-5.9l0,0c0.1,0,0.3,0,0.4,0H238.8L238.8,69.5z M161.1,69.5c2,0,4,0.4,5.9,1.2
		c3.2,1.5,4.9,4,5.2,7.5c0.3,3.5-1,6-4.2,7.6c0.1,0.1,0.2,0.1,0.2,0.2c3.5,1.2,5.3,5.2,5.1,8.1c-0.2,3.9-2,6.7-5.7,8.2
		c-1.1,0.4-2.2,0.7-3.3,0.9c-1.2,0.2-2.5,0.3-3.7,0.3l0,0h-15.9l0,0v-20l0,0h0.7c5.4-0.1,10.7-0.1,16.1-0.2c0.8,0,1.6-0.2,2.3-0.5
		c2-0.8,2.8-2.8,1.8-4.7c-0.7-1.5-2-2.2-3.6-2.5c-0.5-0.1-1.1-0.1-1.6-0.1c-5,0-10,0-15-0.1l0,0h-0.7l0,0v-5.7c0.2,0,0.3,0,0.4,0
		l0,0H161.1z M160.6,88.7h-9.2c-0.2,0-0.4,0-0.6,0l0,0v8.6c3.6,0,7.1,0,10.7,0c1.2,0,2.3-0.3,3.4-0.9c0.9-0.5,1.6-1.2,1.9-2.2
		c0.4-1.5-0.1-3-1.5-4.1C163.9,89.2,162.4,88.7,160.6,88.7L160.6,88.7z M210.5,69.7v6.1h-25.2v-6.1H210.5z"/>
</g>
</svg>
